<svg width="20" height="20" viewBox="0 0 20 20" fill="none" xmlns="http://www.w3.org/2000/svg">
<path d="M19.3503 9.1H10.1803V11.83H16.6903C16.3603 15.64 13.1903 17.27 10.1903 17.27C6.36027 17.27 3.00027 14.25 3.00027 10C3.00027 5.9 6.20027 2.73 10.2003 2.73C13.2903 2.73 15.1003 4.7 15.1003 4.7L17.0003 2.72C17.0003 2.72 14.5603 0 10.1003 0C4.42027 0 0.0302734 4.8 0.0302734 10C0.0302734 15.05 4.16027 20 10.2503 20C15.6003 20 19.5003 16.33 19.5003 10.91C19.5003 9.76 19.3503 9.1 19.3503 9.1Z" fill="#4F4F4F"/>
</svg>
